<?xml version="1.0" encoding="UTF-8"?>
<svg id="Layer_1" data-name="Layer 1" xmlns="http://www.w3.org/2000/svg" viewBox="0 0 321.82 80.52">
  <g>
    <path d="m.7.49h13.13v49.44h28.45v10.7H.7V.49Z" style="fill: #00c98f;"/>
    <path d="m87.05,42.39h-32.99c1.22,5.43,5.84,8.75,12.48,8.75,4.62,0,7.94-1.38,10.94-4.21l6.73,7.29c-4.05,4.62-10.13,7.05-17.99,7.05-15.08,0-24.88-9.48-24.88-22.45s9.97-22.45,23.26-22.45,22.7,8.59,22.7,22.61c0,.97-.16,2.35-.24,3.4Zm-33.15-7.38h21.48c-.89-5.51-5.03-9.08-10.7-9.08s-9.89,3.49-10.78,9.08Z" style="fill: #00c98f;"/>
    <polygon points="138.89 11.05 134.14 11.05 114.93 60.63 101.88 60.63 87.29 21.35 100.34 21.35 108.69 46.69 122.02 11.05 115.8 11.05 132.71 0 138.89 11.05" style="fill: #00c98f;"/>
    <path d="m174.9,42.39h-32.99c1.22,5.43,5.84,8.75,12.48,8.75,4.62,0,7.94-1.38,10.94-4.21l6.73,7.29c-4.05,4.62-10.13,7.05-17.99,7.05-15.08,0-24.88-9.48-24.88-22.45s9.97-22.45,23.26-22.45,22.7,8.59,22.7,22.61c0,.97-.16,2.35-.24,3.4Zm-33.15-7.38h21.48c-.89-5.51-5.02-9.08-10.7-9.08s-9.89,3.49-10.78,9.08Z" style="fill: #00c98f;"/>
    <path d="m178.71.49h12.64v60.14h-12.64V.49Z" style="fill: #00c98f;"/>
    <path d="m216.72,35.67V.49h13.13v34.69c0,10.78,4.7,15.24,12.64,15.24s12.64-4.46,12.64-15.24V.49h12.97v35.18c0,16.7-9.56,25.94-25.69,25.94s-25.69-9.24-25.69-25.94Z" style="fill: #00c98f;"/>
    <path d="m321.82,38.83c0,13.7-9.48,22.45-21.72,22.45-5.43,0-9.89-1.7-13.13-5.27v24.33h-12.64V17.02h12.08v5.03c3.16-3.81,7.86-5.67,13.7-5.67,12.24,0,21.72,8.75,21.72,22.45Zm-12.81,0c0-7.54-4.78-12.08-11.1-12.08s-11.1,4.54-11.1,12.08,4.78,12.08,11.1,12.08,11.1-4.54,11.1-12.08Z" style="fill: #00c98f;"/>
  </g>
  <g>
    <path d="m0,80.34v-15.03h4.42c2.18,0,3.97.67,5.38,2.01s2.12,3.18,2.12,5.51-.71,4.17-2.12,5.51c-1.41,1.34-3.2,2.01-5.38,2.01H0Zm1.83-1.65h2.56c1.6,0,2.94-.49,4.02-1.47,1.07-.98,1.61-2.44,1.61-4.39s-.54-3.41-1.61-4.39c-1.07-.98-2.41-1.47-4.02-1.47H1.83v11.73Z" style="fill: #0a2540;"/>
    <path d="m18.49,80.34v-15.03h1.83v15.03h-1.83Z" style="fill: #0a2540;"/>
    <path d="m34.43,80.52c-1.99,0-3.69-.67-5.1-2.02-1.41-1.35-2.12-3.24-2.12-5.67s.71-4.32,2.13-5.67,3.13-2.02,5.13-2.02c1.72,0,3.18.46,4.39,1.39,1.21.92,1.9,2.1,2.07,3.53h-1.93c-.17-.96-.68-1.74-1.54-2.35-.85-.61-1.86-.91-3.02-.91-1.59,0-2.88.53-3.88,1.59s-1.49,2.54-1.49,4.45.5,3.39,1.49,4.47,2.29,1.61,3.88,1.61c1.27,0,2.37-.33,3.29-.99s1.37-1.52,1.37-2.58c0-.34-.11-.62-.32-.83s-.5-.31-.86-.31h-3.39v-1.59h3.72c.63,0,1.23.23,1.8.7.57.47.86,1.09.86,1.88v5.15h-1.7v-2.62c-.36.83-.97,1.5-1.84,2.02-.87.52-1.85.77-2.95.77Z" style="fill: #0a2540;"/>
    <path d="m47.81,80.34v-15.03h1.83v15.03h-1.83Z" style="fill: #0a2540;"/>
    <path d="m60.74,80.34v-13.38h-4.81v-1.65h11.45v1.65h-4.79v13.38h-1.85Z" style="fill: #0a2540;"/>
    <path d="m82.64,80.34l-1.55-4.06h-6.7l-1.57,4.06h-1.91l5.99-15.03h1.65l5.99,15.03h-1.91Zm-7.62-5.69h5.43l-2.71-7.09-2.73,7.09Z" style="fill: #0a2540;"/>
    <path d="m90.85,80.34v-15.03h1.83v13.38h7.52v1.65h-9.34Z" style="fill: #0a2540;"/>
    <path d="m116.71,80.34v-15.03h2.21l5.13,12.35,5.11-12.35h2.21v15.03h-1.78v-11.55l-4.77,11.55h-1.57l-4.77-11.55v11.55h-1.78Z" style="fill: #0a2540;"/>
    <path d="m149.37,80.34l-1.55-4.06h-6.7l-1.57,4.06h-1.91l5.99-15.03h1.65l5.99,15.03h-1.91Zm-7.62-5.69h5.43l-2.71-7.09-2.73,7.09Z" style="fill: #0a2540;"/>
    <path d="m165.7,73.21c1.22.66,1.88,1.79,2,3.39l.26,3.74h-1.76l-.26-3.63c-.04-.74-.29-1.35-.73-1.8-.44-.46-1.02-.69-1.72-.69h-4.08v6.12h-1.83v-15.03h5.69c1.47,0,2.64.4,3.5,1.21.86.81,1.29,1.87,1.29,3.19,0,1.59-.79,2.76-2.36,3.5Zm-6.29-6.27v5.63h3.87c.99,0,1.72-.27,2.19-.82s.71-1.22.71-2.04-.24-1.48-.71-2c-.47-.52-1.2-.77-2.19-.77h-3.87Z" style="fill: #0a2540;"/>
    <path d="m184.83,80.34l-5.54-7.69-2.21,2.28v5.41h-1.85v-15.03h1.85v7.15l6.98-7.15h2.32l-5.84,6.06,6.51,8.98h-2.21Z" style="fill: #0a2540;"/>
    <path d="m192.82,80.34v-15.03h9.41v1.65h-7.58v4.79h6.16v1.65h-6.16v5.28h7.82v1.65h-9.64Z" style="fill: #0a2540;"/>
    <path d="m213.33,80.34v-13.38h-4.81v-1.65h11.45v1.65h-4.79v13.38h-1.85Z" style="fill: #0a2540;"/>
    <path d="m226.37,80.34v-15.03h1.83v15.03h-1.83Z" style="fill: #0a2540;"/>
    <path d="m235.33,80.34v-15.03h2.04l7.75,12.13v-12.13h1.78v15.03h-2.06l-7.73-12.11v12.11h-1.78Z" style="fill: #0a2540;"/>
    <path d="m260.58,80.52c-1.99,0-3.69-.67-5.1-2.02-1.41-1.35-2.12-3.24-2.12-5.67s.71-4.32,2.13-5.67,3.13-2.02,5.13-2.02c1.72,0,3.18.46,4.39,1.39,1.21.92,1.9,2.1,2.07,3.53h-1.93c-.17-.96-.68-1.74-1.54-2.35-.85-.61-1.86-.91-3.02-.91-1.59,0-2.88.53-3.88,1.59-1,1.06-1.49,2.54-1.49,4.45s.5,3.39,1.49,4.47c.99,1.07,2.29,1.61,3.88,1.61,1.27,0,2.37-.33,3.29-.99s1.38-1.52,1.38-2.58c0-.34-.11-.62-.32-.83s-.5-.31-.86-.31h-3.39v-1.59h3.72c.63,0,1.23.23,1.8.7.57.47.86,1.09.86,1.88v5.15h-1.7v-2.62c-.36.83-.97,1.5-1.84,2.02-.87.52-1.85.77-2.95.77Z" style="fill: #0a2540;"/>
  </g>
  <polygon points="117.95 15.78 113.97 15.78 107.34 32.9 103.52 21.32 105.59 15.78 101.29 15.78 112.98 8.14 117.95 15.78" style="fill: #8fbcb2;"/>
</svg>